<svg viewBox="0 0 32 32" fill="none"
    xmlns="http://www.w3.org/2000/svg" height="100%">
    <path d="M16 32.125C24.8366 32.125 32 24.9616 32 16.125C32 7.28844 24.8366 0.125 16 0.125C7.16344 0.125 0 7.28844 0 16.125C0 24.9616 7.16344 32.125 16 32.125Z" fill="#2EBAC6" fill-opacity="0.08"></path>
    <path d="M23.0022 22.5003L17.5919 9.41985C17.2867 8.74356 16.8331 8.41367 16.2352 8.41367H15.7568C15.1589 8.41367 14.7053 8.74356 14.4001 9.41985L12.0455 15.1188H10.264C9.73209 15.1229 9.2991 15.5518 9.29498 16.0879V16.1003C9.2991 16.6322 9.73209 17.0652 10.264 17.0693H11.2207L8.97333 22.5003C8.93209 22.6199 8.90735 22.7436 8.90735 22.8714C8.90735 23.1766 9.00219 23.4157 9.17127 23.6013C9.34034 23.7869 9.58364 23.8776 9.88879 23.8776C10.0909 23.8735 10.2847 23.8116 10.4455 23.692C10.6187 23.5724 10.7383 23.3992 10.8331 23.2013L13.3073 17.0652H15.0228C15.5548 17.0611 15.9877 16.6322 15.9919 16.0961V16.0714C15.9877 15.5394 15.5548 15.1065 15.0228 15.1023H14.1073L15.996 10.3972L21.1424 23.1972C21.2372 23.3951 21.3568 23.5683 21.53 23.6879C21.6908 23.8075 21.8888 23.8693 22.0867 23.8735C22.3919 23.8735 22.631 23.7827 22.8042 23.5972C22.9774 23.4116 23.0682 23.1724 23.0682 22.8673C23.0723 22.7436 23.0517 22.6157 23.0022 22.5003Z" fill="#2EBAC6"></path>
</svg>