<svg viewBox="0 0 208 208" fill="none"
    xmlns="http://www.w3.org/2000/svg" height="100%">
    <path d="M140.686 106.702C144.289 100.479 150.103 100.479 153.706 106.702L176.144 146.091C179.747 152.315 176.799 157.392 169.593 157.392H124.39C117.265 157.392 114.317 152.315 117.838 146.091L140.686 106.702ZM97.284 30.8724C100.887 24.6488 106.619 24.6488 110.223 30.8724L115.218 39.8803L127.01 60.5984C129.876 66.4945 129.876 73.4551 127.01 79.3512L87.4572 147.893C83.8541 153.461 77.8761 156.983 71.2431 157.392H38.4053C31.199 157.392 28.2509 152.397 31.8541 146.091L97.284 30.8724Z" fill="#E84142"></path>
</svg>