<svg width="28" height="28" viewBox="0 0 56 56" fill="none"
    xmlns="http://www.w3.org/2000/svg">
    <g clip-path="url(#clip0_1001_66)">
        <g filter="url(#filter0_d_1001_66)">
            <path d="M13.5112 28L13.5344 36.5101L20.7655 40.7652V45.7475L9.30258 39.0245V25.5114L13.5112 28ZM13.5112 19.4899V24.449L9.3 21.9578V16.9987L13.5112 14.5076L17.7431 16.9987L13.5112 19.4899ZM23.7853 16.9987L27.9965 14.5076L32.2284 16.9987L27.9965 19.4899L23.7853 16.9987Z" fill="white"></path>
            <path d="M16.5544 34.7462V29.7639L20.7656 32.2551V37.2142L16.5544 34.7462ZM23.7855 42.5498L27.9967 45.0409L32.2285 42.5498V47.5088L27.9967 50L23.7855 47.5088V42.5498ZM38.2682 16.9987L42.4794 14.5076L46.7112 16.9987V21.9578L42.4794 24.449V19.4899L38.2682 16.9987ZM42.4794 36.5101L42.5026 28L46.7138 25.5089V39.0219L35.2509 45.7449V40.7626L42.4794 36.5101Z" fill="white"></path>
            <path d="M39.4592 34.7462L35.248 37.2142V32.2551L39.4592 29.7639V34.7462Z" fill="white"></path>
            <path d="M39.4596 21.2538L39.4828 26.2361L32.2311 30.4911V39.0219L28.0199 41.4898L23.8087 39.0219V30.4911L16.557 26.2361V21.2538L20.7863 18.7626L27.9941 23.0383L35.2458 18.7626L39.4776 21.2538H39.4596ZM16.5544 12.7462L27.9967 6L39.4596 12.7462L35.2484 15.2374L27.9967 10.9617L20.7656 15.2374L16.5544 12.7462Z" fill="white"></path>
        </g>
    </g>
    <defs>
        <filter id="filter0_d_1001_66" x="-68.7" y="-70" width="197.414" height="204" filterUnits="userSpaceOnUse" color-interpolation-filters="sRGB">
            <feFlood flood-opacity="0" result="BackgroundImageFix"></feFlood>
            <feColorMatrix in="SourceAlpha" type="matrix" values="0 0 0 0 0 0 0 0 0 0 0 0 0 0 0 0 0 0 127 0" result="hardAlpha"></feColorMatrix>
            <feOffset dx="2" dy="4"></feOffset>
            <feGaussianBlur stdDeviation="40"></feGaussianBlur>
            <feComposite in2="hardAlpha" operator="out"></feComposite>
            <feColorMatrix type="matrix" values="0 0 0 0 0.941176 0 0 0 0 0.72549 0 0 0 0 0.0431373 0 0 0 0.16 0"></feColorMatrix>
            <feBlend mode="normal" in2="BackgroundImageFix" result="effect1_dropShadow_1001_66"></feBlend>
            <feBlend mode="normal" in="SourceGraphic" in2="effect1_dropShadow_1001_66" result="shape"></feBlend>
        </filter>
        <clipPath id="clip0_1001_66">
            <rect width="56" height="56" rx="28" fill="white"></rect>
        </clipPath>
    </defs>
</svg>