<svg width="290" height="504" viewBox="0 0 290 504" fill="none"
    xmlns="http://www.w3.org/2000/svg" class="sc-bRubDb hOHfJd">
    <path fill-rule="evenodd" clip-rule="evenodd" d="M-0.5 516V0H0.5V23.5H23.5V0H24.5V23.5H47.5V0H48.5V23.5H71.5V0H72.5V23.5H95.5V0H96.5V23.5H119.5V0H120.5V23.5H143.5V0H144.5V23.5H167.5V0H168.5V23.5H191.5V0H192.5V23.5H215.5V0H216.5V23.5H239.5V0H240.5V23.5H263.5V0H264.5V23.5H287.5V0H288.5V23.5H290V24.5H288.5V47.5H290V48.5H288.5V71.5H290V72.5H288.5V95.5H290V96.5H288.5V119.5H290V120.5H288.5V143.5H290V144.5H288.5V167.5H290V168.5H288.5V191.5H290V192.5H288.5V215.5H290V216.5H288.5V239.5H290V240.5H288.5V263.5H290V264.5H288.5V287.5H290V288.5H288.5V311.5H290V312.5H288.5V335.5H290V336.5H288.5V359.5H290V360.5H288.5V383.5H290V384.5H288.5V407.5H290V408.5H288.5V431.5H290V432.5H288.5V455.5H290V456.5H288.5V479.5H290V480.5H288.5V503.5H290V504.5H288.5V516H287.5V504.5H264.5V516H263.5V504.5H240.5V516H239.5V504.5H216.5V516H215.5V504.5H192.5V516H191.5V504.5H168.5V516H167.5V504.5H144.5V516H143.5V504.5H120.5V516H119.5V504.5H96.5V516H95.5V504.5H72.5V516H71.5V504.5H48.5V516H47.5V504.5H24.5V516H23.5V504.5H0.5V516H-0.5ZM287.5 503.5V480.5H264.5V503.5H287.5ZM287.5 479.5V456.5H264.5V479.5H287.5ZM287.5 455.5V432.5H264.5V455.5H287.5ZM287.5 431.5V408.5H264.5V431.5H287.5ZM287.5 407.5V384.5H264.5V407.5H287.5ZM287.5 383.5V360.5H264.5V383.5H287.5ZM287.5 359.5V336.5H264.5V359.5H287.5ZM287.5 335.5V312.5H264.5V335.5H287.5ZM287.5 311.5V288.5H264.5V311.5H287.5ZM287.5 287.5V264.5H264.5V287.5H287.5ZM287.5 263.5V240.5H264.5V263.5H287.5ZM287.5 239.5V216.5H264.5V239.5H287.5ZM287.5 215.5V192.5H264.5V215.5H287.5ZM287.5 191.5V168.5H264.5V191.5H287.5ZM287.5 167.5V144.5H264.5V167.5H287.5ZM287.5 143.5V120.5H264.5V143.5H287.5ZM287.5 119.5V96.5H264.5V119.5H287.5ZM287.5 95.5V72.5H264.5V95.5H287.5ZM287.5 71.5V48.5H264.5V71.5H287.5ZM287.5 47.5V24.5H264.5V47.5H287.5ZM240.5 24.5H263.5V47.5H240.5V24.5ZM240.5 48.5H263.5V71.5H240.5V48.5ZM240.5 72.5H263.5V95.5H240.5V72.5ZM240.5 96.5H263.5V119.5H240.5V96.5ZM240.5 120.5H263.5V143.5H240.5V120.5ZM240.5 144.5H263.5V167.5H240.5V144.5ZM240.5 168.5H263.5V191.5H240.5V168.5ZM240.5 192.5H263.5V215.5H240.5V192.5ZM240.5 216.5H263.5V239.5H240.5V216.5ZM240.5 240.5H263.5V263.5H240.5V240.5ZM240.5 264.5H263.5V287.5H240.5V264.5ZM240.5 288.5H263.5V311.5H240.5V288.5ZM240.5 312.5H263.5V335.5H240.5V312.5ZM240.5 336.5H263.5V359.5H240.5V336.5ZM240.5 360.5H263.5V383.5H240.5V360.5ZM240.5 384.5H263.5V407.5H240.5V384.5ZM240.5 408.5H263.5V431.5H240.5V408.5ZM240.5 432.5H263.5V455.5H240.5V432.5ZM240.5 456.5H263.5V479.5H240.5V456.5ZM240.5 480.5H263.5V503.5H240.5V480.5ZM239.5 503.5V480.5H216.5V503.5H239.5ZM239.5 479.5V456.5H216.5V479.5H239.5ZM239.5 455.5V432.5H216.5V455.5H239.5ZM239.5 431.5V408.5H216.5V431.5H239.5ZM239.5 407.5V384.5H216.5V407.5H239.5ZM239.5 383.5V360.5H216.5V383.5H239.5ZM239.5 359.5V336.5H216.5V359.5H239.5ZM239.5 335.5V312.5H216.5V335.5H239.5ZM239.5 311.5V288.5H216.5V311.5H239.5ZM239.5 287.5V264.5H216.5V287.5H239.5ZM239.5 263.5V240.5H216.5V263.5H239.5ZM239.5 239.5V216.5H216.5V239.5H239.5ZM239.5 215.5V192.5H216.5V215.5H239.5ZM239.5 191.5V168.5H216.5V191.5H239.5ZM239.5 167.5V144.5H216.5V167.5H239.5ZM239.5 143.5V120.5H216.5V143.5H239.5ZM239.5 119.5V96.5H216.5V119.5H239.5ZM239.5 95.5V72.5H216.5V95.5H239.5ZM239.5 71.5V48.5H216.5V71.5H239.5ZM239.5 47.5V24.5H216.5V47.5H239.5ZM192.5 24.5H215.5V47.5H192.5V24.5ZM192.5 48.5H215.5V71.5H192.5V48.5ZM192.5 72.5H215.5V95.5H192.5V72.5ZM192.5 96.5H215.5V119.5H192.5V96.5ZM192.5 120.5H215.5V143.5H192.5V120.5ZM192.5 144.5H215.5V167.5H192.5V144.5ZM192.5 168.5H215.5V191.5H192.5V168.5ZM192.5 192.5H215.5V215.5H192.5V192.5ZM192.5 216.5H215.5V239.5H192.5V216.5ZM192.5 240.5H215.5V263.5H192.5V240.5ZM192.5 264.5H215.5V287.5H192.5V264.5ZM192.5 288.5H215.5V311.5H192.5V288.5ZM192.5 312.5H215.5V335.5H192.5V312.5ZM192.5 336.5H215.5V359.5H192.5V336.5ZM192.5 360.5H215.5V383.5H192.5V360.5ZM192.5 384.5H215.5V407.5H192.5V384.5ZM192.5 408.5H215.5V431.5H192.5V408.5ZM192.5 432.5H215.5V455.5H192.5V432.5ZM192.5 456.5H215.5V479.5H192.5V456.5ZM192.5 480.5H215.5V503.5H192.5V480.5ZM191.5 503.5V480.5H168.5V503.5H191.5ZM191.5 479.5V456.5H168.5V479.5H191.5ZM191.5 455.5V432.5H168.5V455.5H191.5ZM191.5 431.5V408.5H168.5V431.5H191.5ZM191.5 407.5V384.5H168.5V407.5H191.5ZM191.5 383.5V360.5H168.5V383.5H191.5ZM191.5 359.5V336.5H168.5V359.5H191.5ZM191.5 335.5V312.5H168.5V335.5H191.5ZM191.5 311.5V288.5H168.5V311.5H191.5ZM191.5 287.5V264.5H168.5V287.5H191.5ZM191.5 263.5V240.5H168.5V263.5H191.5ZM191.5 239.5V216.5H168.5V239.5H191.5ZM191.5 215.5V192.5H168.5V215.5H191.5ZM191.5 191.5V168.5H168.5V191.5H191.5ZM191.5 167.5V144.5H168.5V167.5H191.5ZM191.5 143.5V120.5H168.5V143.5H191.5ZM191.5 119.5V96.5H168.5V119.5H191.5ZM191.5 95.5V72.5H168.5V95.5H191.5ZM191.5 71.5V48.5H168.5V71.5H191.5ZM191.5 47.5V24.5H168.5V47.5H191.5ZM144.5 24.5H167.5V47.5H144.5V24.5ZM144.5 48.5H167.5V71.5H144.5V48.5ZM144.5 72.5H167.5V95.5H144.5V72.5ZM144.5 96.5H167.5V119.5H144.5V96.5ZM144.5 120.5H167.5V143.5H144.5V120.5ZM144.5 144.5H167.5V167.5H144.5V144.5ZM144.5 168.5H167.5V191.5H144.5V168.5ZM144.5 192.5H167.5V215.5H144.5V192.5ZM144.5 216.5H167.5V239.5H144.5V216.5ZM144.5 240.5H167.5V263.5H144.5V240.5ZM144.5 264.5H167.5V287.5H144.5V264.5ZM144.5 288.5H167.5V311.5H144.5V288.5ZM144.5 312.5H167.5V335.5H144.5V312.5ZM144.5 336.5H167.5V359.5H144.5V336.5ZM144.5 360.5H167.5V383.5H144.5V360.5ZM144.5 384.5H167.5V407.5H144.5V384.5ZM144.5 408.5H167.5V431.5H144.5V408.5ZM144.5 432.5H167.5V455.5H144.5V432.5ZM144.5 456.5H167.5V479.5H144.5V456.5ZM144.5 480.5H167.5V503.5H144.5V480.5ZM143.5 503.5V480.5H120.5V503.5H143.5ZM143.5 479.5V456.5H120.5V479.5H143.5ZM143.5 455.5V432.5H120.5V455.5H143.5ZM143.5 431.5V408.5H120.5V431.5H143.5ZM143.5 407.5V384.5H120.5V407.5H143.5ZM143.5 383.5V360.5H120.5V383.5H143.5ZM143.5 359.5V336.5H120.5V359.5H143.5ZM143.5 335.5V312.5H120.5V335.5H143.5ZM143.5 311.5V288.5H120.5V311.5H143.5ZM143.5 287.5V264.5H120.5V287.5H143.5ZM143.5 263.5V240.5H120.5V263.5H143.5ZM143.5 239.5V216.5H120.5V239.5H143.5ZM143.5 215.5V192.5H120.5V215.5H143.5ZM143.5 191.5V168.5H120.5V191.5H143.5ZM143.5 167.5V144.5H120.5V167.5H143.5ZM143.5 143.5V120.5H120.5V143.5H143.5ZM143.5 119.5V96.5H120.5V119.5H143.5ZM143.5 95.5V72.5H120.5V95.5H143.5ZM143.5 71.5V48.5H120.5V71.5H143.5ZM143.5 47.5V24.5H120.5V47.5H143.5ZM96.5 24.5H119.5V47.5H96.5V24.5ZM96.5 48.5H119.5V71.5H96.5V48.5ZM96.5 72.5H119.5V95.5H96.5V72.5ZM96.5 96.5H119.5V119.5H96.5V96.5ZM96.5 120.5H119.5V143.5H96.5V120.5ZM96.5 144.5H119.5V167.5H96.5V144.5ZM96.5 168.5H119.5V191.5H96.5V168.5ZM96.5 192.5H119.5V215.5H96.5V192.5ZM96.5 216.5H119.5V239.5H96.5V216.5ZM96.5 240.5H119.5V263.5H96.5V240.5ZM96.5 264.5H119.5V287.5H96.5V264.5ZM96.5 288.5H119.5V311.5H96.5V288.5ZM96.5 312.5H119.5V335.5H96.5V312.5ZM96.5 336.5H119.5V359.5H96.5V336.5ZM96.5 360.5H119.5V383.5H96.5V360.5ZM96.5 384.5H119.5V407.5H96.5V384.5ZM96.5 408.5H119.5V431.5H96.5V408.5ZM96.5 432.5H119.5V455.5H96.5V432.5ZM96.5 456.5H119.5V479.5H96.5V456.5ZM96.5 480.5H119.5V503.5H96.5V480.5ZM95.5 503.5V480.5H72.5V503.5H95.5ZM95.5 479.5V456.5H72.5V479.5H95.5ZM95.5 455.5V432.5H72.5V455.5H95.5ZM95.5 431.5V408.5H72.5V431.5H95.5ZM95.5 407.5V384.5H72.5V407.5H95.5ZM95.5 383.5V360.5H72.5V383.5H95.5ZM95.5 359.5V336.5H72.5V359.5H95.5ZM95.5 335.5V312.5H72.5V335.5H95.5ZM95.5 311.5V288.5H72.5V311.5H95.5ZM95.5 287.5V264.5H72.5V287.5H95.5ZM95.5 263.5V240.5H72.5V263.5H95.5ZM95.5 239.5V216.5H72.5V239.5H95.5ZM95.5 215.5V192.5H72.5V215.5H95.5ZM95.5 191.5V168.5H72.5V191.5H95.5ZM95.5 167.5V144.5H72.5V167.5H95.5ZM95.5 143.5V120.5H72.5V143.5H95.5ZM95.5 119.5V96.5H72.5V119.5H95.5ZM95.5 95.5V72.5H72.5V95.5H95.5ZM95.5 71.5V48.5H72.5V71.5H95.5ZM95.5 47.5V24.5H72.5V47.5H95.5ZM48.5 24.5H71.5V47.5H48.5V24.5ZM48.5 48.5H71.5V71.5H48.5V48.5ZM48.5 72.5H71.5V95.5H48.5V72.5ZM48.5 96.5H71.5V119.5H48.5V96.5ZM48.5 120.5H71.5V143.5H48.5V120.5ZM48.5 144.5H71.5V167.5H48.5V144.5ZM48.5 168.5H71.5V191.5H48.5V168.5ZM48.5 192.5H71.5V215.5H48.5V192.5ZM48.5 216.5H71.5V239.5H48.5V216.5ZM48.5 240.5H71.5V263.5H48.5V240.5ZM48.5 264.5H71.5V287.5H48.5V264.5ZM48.5 288.5H71.5V311.5H48.5V288.5ZM48.5 312.5H71.5V335.5H48.5V312.5ZM48.5 336.5H71.5V359.5H48.5V336.5ZM48.5 360.5H71.5V383.5H48.5V360.5ZM48.5 384.5H71.5V407.5H48.5V384.5ZM48.5 408.5H71.5V431.5H48.5V408.5ZM48.5 432.5H71.5V455.5H48.5V432.5ZM48.5 456.5H71.5V479.5H48.5V456.5ZM48.5 480.5H71.5V503.5H48.5V480.5ZM47.5 503.5V480.5H24.5V503.5H47.5ZM47.5 479.5V456.5H24.5V479.5H47.5ZM47.5 455.5V432.5H24.5V455.5H47.5ZM47.5 431.5V408.5H24.5V431.5H47.5ZM47.5 407.5V384.5H24.5V407.5H47.5ZM47.5 383.5V360.5H24.5V383.5H47.5ZM47.5 359.5V336.5H24.5V359.5H47.5ZM47.5 335.5V312.5H24.5V335.5H47.5ZM47.5 311.5V288.5H24.5V311.5H47.5ZM47.5 287.5V264.5H24.5V287.5H47.5ZM47.5 263.5V240.5H24.5V263.5H47.5ZM47.5 239.5V216.5H24.5V239.5H47.5ZM47.5 215.5V192.5H24.5V215.5H47.5ZM47.5 191.5V168.5H24.5V191.5H47.5ZM47.5 167.5V144.5H24.5V167.5H47.5ZM47.5 143.5V120.5H24.5V143.5H47.5ZM47.5 119.5V96.5H24.5V119.5H47.5ZM47.5 95.5V72.5H24.5V95.5H47.5ZM47.5 71.5V48.5H24.5V71.5H47.5ZM47.5 47.5V24.5H24.5V47.5H47.5ZM0.5 47.5V24.5H23.5V47.5H0.5ZM0.5 71.5V48.5H23.5V71.5H0.5ZM0.5 95.5V72.5H23.5V95.5H0.5ZM0.5 119.5V96.5H23.5V119.5H0.5ZM0.5 143.5V120.5H23.5V143.5H0.5ZM0.5 167.5V144.5H23.5V167.5H0.5ZM0.5 191.5V168.5H23.5V191.5H0.5ZM0.5 215.5V192.5H23.5V215.5H0.5ZM0.5 239.5V216.5H23.5V239.5H0.5ZM0.5 263.5V240.5H23.5V263.5H0.5ZM0.5 287.5V264.5H23.5V287.5H0.5ZM0.5 311.5V288.5H23.5V311.5H0.5ZM0.5 335.5V312.5H23.5V335.5H0.5ZM0.5 359.5V336.5H23.5V359.5H0.5ZM0.5 383.5V360.5H23.5V383.5H0.5ZM0.5 407.5V384.5H23.5V407.5H0.5ZM0.5 431.5V408.5H23.5V431.5H0.5ZM0.5 455.5V432.5H23.5V455.5H0.5ZM0.5 479.5V456.5H23.5V479.5H0.5ZM0.5 503.5V480.5H23.5V503.5H0.5Z" fill="white" fill-opacity="0.02"></path>
</svg>