<?xml version="1.0" standalone="no"?>
<!DOCTYPE svg PUBLIC "-//W3C//DTD SVG 20010904//EN"
 "http://www.w3.org/TR/2001/REC-SVG-20010904/DTD/svg10.dtd">
<svg version="1.0" xmlns="http://www.w3.org/2000/svg"
 width="793.000000pt" height="681.000000pt" viewBox="0 0 793.000000 681.000000"
 preserveAspectRatio="xMidYMid meet">

<g transform="translate(0.000000,681.000000) scale(0.100000,-0.100000)"
fill="#000000" stroke="none">
<path d="M2232 6267 c-34 -62 -74 -132 -89 -156 l-26 -43 164 6 c90 4 182 9
205 12 38 4 41 7 42 37 1 18 3 52 5 77 2 25 2 28 0 8 -3 -30 -9 -38 -24 -38
-10 0 -19 -4 -19 -10 0 -5 5 -10 10 -10 15 0 12 -30 -5 -47 -24 -23 -29 -9
-16 41 6 25 11 59 11 75 0 21 5 31 15 31 8 0 15 5 15 11 0 5 -4 8 -8 5 -4 -2
-14 0 -22 5 -12 7 -11 10 8 15 27 8 29 34 2 34 -31 0 -24 20 8 21 24 0 25 1 7
9 -15 6 -6 9 35 11 l55 2 -70 7 c-38 4 -108 8 -155 8 l-85 1 -63 -112z m236
86 c-10 -2 -26 -2 -35 0 -10 3 -2 5 17 5 19 0 27 -2 18 -5z"/>
<path d="M5128 6373 c7 -3 16 -2 19 1 4 3 -2 6 -13 5 -11 0 -14 -3 -6 -6z"/>
<path d="M5131 6304 c0 -11 3 -14 6 -6 3 7 2 16 -1 19 -3 4 -6 -2 -5 -13z"/>
<path d="M5170 6296 c0 -8 5 -18 10 -21 6 -3 10 1 10 9 0 8 -4 18 -10 21 -5 3
-10 -1 -10 -9z"/>
<path d="M5200 6261 c0 -6 9 -25 20 -43 11 -18 19 -42 19 -53 l-1 -20 -5 20
c-3 11 -10 23 -16 27 -13 8 -37 -1 -37 -14 0 -6 6 -8 13 -5 20 7 20 -43 0 -65
-25 -28 -3 -21 29 9 15 15 28 22 28 16 0 -6 -7 -16 -15 -23 -13 -10 -13 -15
-3 -21 9 -6 7 -13 -10 -27 -21 -19 -30 -52 -14 -52 14 0 32 -64 32 -113 0 -26
-4 -47 -10 -47 -5 0 -10 18 -10 40 0 22 -4 40 -10 40 -5 0 -10 -20 -10 -45 0
-37 -3 -43 -16 -38 -14 5 -14 3 -3 -16 8 -11 16 -21 20 -21 6 0 9 -17 10 -52
0 -15 9 -18 47 -18 58 0 61 -3 96 -65 97 -171 116 -207 116 -220 0 -8 -34 -75
-76 -150 l-77 -135 -68 0 c-63 0 -69 -2 -69 -21 0 -16 5 -19 23 -15 12 3 16 3
10 0 -7 -3 -13 -15 -12 -27 0 -12 3 -16 6 -9 7 17 30 15 37 -3 7 -19 -3 -45
-17 -45 -5 0 -3 -8 6 -18 19 -21 23 -52 6 -52 -6 0 -13 9 -16 20 -7 27 -17 25
-31 -5 -10 -21 -9 -25 3 -25 12 0 15 -17 15 -84 0 -51 4 -88 11 -92 6 -3 9
-19 5 -35 -4 -19 1 -40 15 -63 19 -33 19 -36 3 -60 -10 -16 -12 -26 -5 -26 14
0 34 48 25 61 -3 5 0 9 5 9 17 0 13 -45 -6 -67 -10 -11 -24 -18 -30 -16 -7 3
-13 0 -13 -6 0 -6 9 -11 20 -11 11 0 20 -4 20 -10 0 -5 -6 -7 -14 -4 -8 3 -16
-2 -19 -13 -4 -16 -6 -15 -12 6 -8 23 -8 22 -22 -9 -7 -18 -11 -35 -8 -38 3
-3 5 1 5 9 0 11 2 11 10 -1 5 -8 10 -36 10 -62 0 -41 -2 -46 -17 -41 -10 4
-26 16 -36 28 -16 18 -18 18 -13 2 3 -10 6 -21 6 -23 0 -3 11 -9 25 -14 22 -8
24 -14 19 -45 -3 -21 -1 -35 5 -35 6 0 11 -18 11 -39 0 -33 4 -40 23 -44 16
-3 14 -5 -10 -6 -17 0 -35 -6 -39 -12 -8 -14 14 -29 33 -22 7 3 21 2 30 -1 15
-6 15 -8 3 -16 -8 -5 -22 -7 -30 -5 -8 2 -22 0 -30 -5 -10 -6 -11 -10 -2 -10
7 0 12 -15 12 -40 0 -22 -4 -40 -10 -40 -5 0 -10 -9 -10 -20 0 -11 5 -20 10
-20 6 0 10 6 10 13 0 9 3 8 9 -2 17 -27 30 0 26 57 l-4 57 9 -55 c10 -63 5
-90 -16 -90 -8 0 -12 -5 -9 -11 11 -17 -15 -67 -38 -74 -14 -4 -17 -8 -9 -12
23 -9 37 4 67 63 17 32 36 64 43 72 7 7 9 18 6 24 -4 6 -3 8 3 5 6 -4 22 17
37 46 15 29 43 77 61 107 19 30 34 61 35 68 0 6 4 12 9 12 5 0 16 15 25 33 9
17 27 50 41 72 14 22 28 47 32 55 4 8 48 85 98 170 225 382 257 440 250 458
-5 14 -330 574 -377 650 -9 15 -25 43 -36 62 -10 19 -42 75 -70 123 -29 49
-52 93 -52 98 0 5 -4 9 -8 9 -4 0 -18 20 -30 45 -12 25 -26 45 -32 45 -5 0
-10 8 -10 18 0 9 -9 28 -20 42 -11 14 -20 30 -20 37 0 15 -20 28 -20 14z m92
-197 c-6 -12 -9 -7 -9 16 0 23 3 28 9 16 5 -9 5 -23 0 -32z m-12 -233 c0 -12
-9 -20 -27 -24 -38 -7 -40 -1 -12 22 30 26 39 26 39 2z m-30 -901 c0 -22 -4
-40 -10 -40 -5 0 -10 18 -10 40 0 22 5 40 10 40 6 0 10 -18 10 -40z m-4 -138
c-12 -12 -18 8 -10 35 l8 28 4 -28 c2 -16 1 -31 -2 -35z m17 -41 c-6 -3 -13
-13 -16 -21 -4 -11 -6 -9 -6 6 -1 24 22 51 28 33 2 -6 -1 -14 -6 -18z m14
-273 c-3 -7 -5 -2 -5 12 0 14 2 19 5 13 2 -7 2 -19 0 -25z m-31 -59 c-3 -17
-6 -44 -6 -60 0 -19 -5 -29 -15 -29 -11 0 -15 11 -15 40 0 22 5 40 10 40 6 0
10 9 10 20 0 11 5 20 11 20 8 0 9 -11 5 -31z m54 -189 c0 -5 -4 -10 -10 -10
-5 0 -10 5 -10 10 0 6 5 10 10 10 6 0 10 -4 10 -10z"/>
<path d="M5150 6080 c0 -5 5 -10 10 -10 6 0 10 5 10 10 0 6 -4 10 -10 10 -5 0
-10 -4 -10 -10z"/>
<path d="M5181 6024 c0 -11 3 -14 6 -6 3 7 2 16 -1 19 -3 4 -6 -2 -5 -13z"/>
<path d="M5116 5817 c3 -10 9 -15 12 -12 3 3 0 11 -7 18 -10 9 -11 8 -5 -6z"/>
<path d="M5160 5813 c0 -5 5 -14 11 -20 12 -12 4 -33 -12 -33 -6 0 -8 4 -4 9
3 5 1 12 -5 16 -14 8 -13 -18 1 -32 9 -9 15 -8 25 2 18 18 18 40 -1 55 -8 7
-15 8 -15 3z"/>
<path d="M961 5629 l-94 -160 34 -47 c98 -138 262 -352 270 -352 5 0 9 6 10
13 0 6 4 3 9 -8 5 -11 9 -15 9 -9 1 7 12 15 26 18 14 4 23 10 20 15 -11 18 29
22 42 4 12 -15 13 -13 7 17 -6 33 -6 34 9 15 15 -18 16 -18 17 -2 0 16 18 55
30 67 3 3 16 28 29 56 l23 52 -40 53 c-45 61 -66 98 -59 106 3 2 280 7 616 10
335 4 608 10 605 15 -3 4 -20 9 -37 9 -25 1 -22 3 16 9 56 10 73 20 33 20 -26
0 -27 2 -25 46 3 36 -1 49 -15 60 -18 13 -18 14 5 33 l24 20 -32 1 c-49 0 -40
17 12 23 81 9 75 28 -10 35 -73 6 -67 25 11 33 32 3 -281 6 -697 7 l-755 2
-93 -161z"/>
<path d="M5823 5755 c13 -32 158 -284 168 -290 15 -10 100 6 97 19 -1 6 1 24
5 39 5 18 3 34 -3 43 -7 7 -9 26 -6 41 12 55 10 115 -5 124 -12 7 -12 9 1 9
10 0 11 3 2 12 -6 6 -62 13 -138 16 -118 4 -127 4 -121 -13z"/>
<path d="M6573 5763 c-30 -4 -48 -23 -22 -23 6 0 8 -9 3 -22 -4 -13 -9 -34
-10 -48 -2 -26 -98 -216 -169 -335 -23 -38 -80 -135 -127 -215 -47 -80 -132
-224 -188 -320 -420 -714 -600 -1022 -600 -1026 0 -1 -22 -38 -48 -81 -90
-147 -113 -194 -107 -214 4 -11 2 -19 -4 -19 -6 0 -11 6 -11 13 0 14 -49 -63
-50 -78 0 -5 5 -3 10 5 9 13 11 13 20 0 15 -24 12 -28 -20 -24 -20 2 -30 -1
-30 -10 0 -7 -7 -19 -15 -26 -20 -17 -19 -25 5 -27 11 -1 19 1 19 5 -5 34 15
44 24 13 6 -23 -10 -41 -35 -41 -12 0 -15 -5 -11 -16 7 -20 -15 -62 -36 -67
-14 -3 -13 -5 3 -12 12 -5 21 -3 27 6 5 9 9 -20 9 -76 0 -49 4 -107 9 -127 5
-22 5 -40 -1 -46 -7 -7 -3 -14 11 -21 12 -7 21 -16 21 -21 0 -14 -34 -12 -48
2 -10 10 -15 10 -22 -2 -7 -11 -4 -16 11 -18 19 -3 21 -9 17 -54 -3 -27 -2
-44 3 -37 4 8 11 10 15 6 4 -3 1 -13 -6 -22 -7 -9 -11 -18 -8 -21 6 -5 48 61
48 75 0 5 7 14 15 21 9 7 14 19 11 27 -3 8 -2 12 3 9 5 -3 12 0 15 7 3 6 17
30 31 52 13 22 35 57 47 79 13 21 28 46 33 55 19 31 88 146 99 166 6 11 32 54
57 95 26 41 113 188 194 325 82 138 185 311 230 385 46 74 91 151 102 170 10
19 26 46 35 60 8 14 89 149 178 300 90 151 197 331 238 400 41 69 83 139 92
155 9 17 52 88 95 160 44 71 78 137 78 147 -2 26 -183 318 -196 316 -7 0 -27
-3 -44 -5z m-1287 -2527 c3 -8 1 -23 -5 -33 -8 -14 -10 -15 -11 -3 0 13 -1 13
-10 0 -6 -9 -7 -43 -4 -82 5 -48 3 -68 -5 -68 -16 0 -15 154 1 180 15 24 27
25 34 6z m-26 -257 c0 -5 -4 -9 -10 -9 -5 0 -10 7 -10 16 0 8 5 12 10 9 6 -3
10 -10 10 -16z m-14 -126 c-11 -11 -19 6 -11 24 8 17 8 17 12 0 3 -10 2 -21
-1 -24z m-9 -35 c-3 -8 -6 -5 -6 6 -1 11 2 17 5 13 3 -3 4 -12 1 -19z"/>
<path d="M2560 5660 c0 -16 2 -30 4 -30 2 0 6 14 8 30 3 17 1 30 -4 30 -4 0
-8 -13 -8 -30z"/>
<path d="M5190 5589 c-42 -6 -42 -6 -9 -7 33 -2 59 -16 59 -34 0 -4 -7 -8 -15
-8 -28 0 -44 -51 -25 -80 9 -13 11 -13 19 0 6 8 13 11 17 8 11 -11 -23 -38
-40 -32 -11 4 -16 1 -16 -10 0 -9 5 -16 11 -16 6 0 9 -9 6 -20 -3 -10 -2 -19
2 -18 22 3 41 -4 41 -14 0 -9 -15 -12 -48 -10 -38 3 -49 0 -49 -11 0 -10 12
-17 34 -19 18 -2 33 0 33 5 0 5 6 4 13 -2 11 -8 17 -5 27 13 7 13 9 29 6 35
-4 5 3 15 14 21 11 6 27 24 36 41 15 29 14 32 -8 65 -13 19 -26 34 -30 34 -5
0 -8 8 -8 18 -1 35 -22 47 -70 41z m50 -93 c0 -3 -7 -6 -15 -6 -9 0 -15 9 -15
21 0 18 2 19 15 5 8 -8 15 -17 15 -20z"/>
<path d="M5150 5546 c0 -10 9 -16 21 -16 24 0 21 23 -4 28 -10 2 -17 -3 -17
-12z"/>
<path d="M1495 4998 c-65 -112 -177 -304 -248 -428 -72 -124 -144 -250 -162
-280 -18 -30 -73 -126 -124 -213 l-92 -159 80 -136 c43 -75 168 -290 276 -477
108 -187 218 -376 245 -420 26 -44 59 -100 73 -125 27 -48 163 -282 432 -745
93 -159 175 -301 182 -315 8 -14 42 -72 77 -130 l62 -105 133 -3 c89 -2 130 1
126 8 -3 5 -18 10 -33 11 -24 0 -25 1 -7 9 21 8 15 13 -30 23 -11 3 1 5 26 6
33 1 49 6 53 17 8 21 9 21 -16 20 -18 -1 -24 7 -31 44 -10 49 -27 77 -27 45
-1 -16 -4 -15 -16 8 -14 26 -11 53 4 43 26 -16 -10 112 -37 134 -6 5 -15 22
-71 126 -15 28 -46 82 -68 120 -31 54 -298 520 -450 788 -13 23 -41 70 -61
106 -35 60 -85 146 -141 245 -63 110 -223 388 -306 532 -52 89 -94 166 -94
172 0 5 42 83 94 172 l94 161 -39 68 c-22 37 -39 71 -39 76 1 5 36 68 78 139
l78 130 160 3 160 2 68 -120 c38 -66 72 -123 77 -126 15 -9 9 -48 -11 -74 -11
-14 -20 -28 -20 -33 0 -4 -26 -50 -57 -102 l-57 -95 -80 0 -81 0 -58 -101 -58
-100 24 -42 c13 -23 63 -107 110 -187 46 -80 135 -230 195 -335 61 -104 120
-203 131 -220 26 -41 141 -236 141 -240 0 -2 23 -40 51 -85 50 -81 69 -113
117 -200 13 -25 31 -52 38 -61 8 -8 14 -19 14 -23 0 -3 12 -25 27 -47 24 -36
28 -39 35 -23 6 14 7 12 3 -8 -3 -16 3 -42 17 -67 25 -48 54 -57 43 -14 -7 29
-23 45 -37 37 -4 -3 -8 0 -8 5 0 6 5 11 10 11 13 0 1 52 -14 62 -7 5 -4 8 7 8
10 0 17 -8 17 -20 0 -13 7 -20 19 -20 18 0 20 9 23 106 2 79 0 108 -9 111 -22
9 -14 22 20 32 l32 9 -38 1 c-47 1 -73 23 -58 48 9 16 10 16 11 -4 0 -13 5
-23 10 -23 6 0 10 17 10 38 0 26 7 45 20 57 11 10 20 22 20 26 0 7 -59 109
-70 119 -3 3 -18 30 -34 60 -16 30 -35 62 -42 71 -8 8 -14 19 -14 24 0 5 -28
56 -61 114 -34 58 -79 135 -99 171 -21 36 -57 99 -81 140 -24 41 -48 83 -54
92 -5 10 -43 75 -84 145 l-74 128 29 55 c15 30 39 72 52 93 31 51 58 98 100
177 19 36 40 72 47 80 7 8 27 42 45 75 l32 60 -38 71 -38 71 64 114 c93 168
94 169 143 168 138 -3 197 2 197 16 0 8 -8 15 -19 15 -26 0 -72 45 -65 64 6
15 17 20 37 17 4 0 7 22 7 49 0 43 -3 50 -20 50 -13 0 -20 7 -20 20 0 11 -4
20 -10 20 -5 0 -10 5 -10 10 0 6 25 10 55 10 44 0 53 3 49 15 -5 12 3 15 37
17 69 3 -481 15 -747 17 l-240 1 -119 -202z m1042 171 c-14 -8 -22 -8 -30 0
-8 8 -3 11 19 11 25 -1 27 -2 11 -11z m-27 -109 c0 -5 -7 -10 -15 -10 -8 0
-15 5 -15 10 0 6 7 10 15 10 8 0 15 -4 15 -10z m-99 -2057 c-12 -20 -14 -14
-5 12 4 9 9 14 11 11 3 -2 0 -13 -6 -23z m75 -100 c-4 -19 -4 -23 3 -14 7 11
11 10 20 -7 15 -29 14 -52 -4 -52 -9 0 -12 6 -8 18 3 9 3 14 -2 10 -14 -13
-37 22 -31 47 9 35 30 32 22 -2z m-79 -1065 c-3 -8 -6 -5 -6 6 -1 11 2 17 5
13 3 -3 4 -12 1 -19z m67 -100 c-12 -19 -30 -5 -32 25 l-2 32 19 -25 c11 -13
17 -28 15 -32z m-4 -172 c0 -2 3 -11 6 -20 4 -12 0 -16 -15 -16 -14 0 -21 6
-21 20 0 11 7 20 15 20 8 0 15 -2 15 -4z m7 -82 c-3 -3 -12 -4 -19 -1 -8 3 -5
6 6 6 11 1 17 -2 13 -5z"/>
<path d="M2503 5133 c9 -2 23 -2 30 0 6 3 -1 5 -18 5 -16 0 -22 -2 -12 -5z"/>
<path d="M2562 5080 c0 -14 2 -19 5 -12 2 6 2 18 0 25 -3 6 -5 1 -5 -13z"/>
<path d="M5190 5060 c0 -5 5 -10 10 -10 6 0 10 5 10 10 0 6 -4 10 -10 10 -5 0
-10 -4 -10 -10z"/>
<path d="M2538 4973 c7 -3 16 -2 19 1 4 3 -2 6 -13 5 -11 0 -14 -3 -6 -6z"/>
<path d="M5165 4857 c0 -18 4 -38 8 -45 5 -6 15 -24 23 -40 13 -25 14 -26 14
-4 0 12 -4 22 -8 22 -16 0 -33 51 -22 65 7 9 7 15 -2 23 -10 8 -13 3 -13 -21z"/>
<path d="M2378 4713 c-23 -44 -42 -76 -56 -91 -12 -14 -7 -51 8 -62 4 -3 17
-23 28 -46 32 -63 41 -67 127 -59 41 4 77 10 79 14 3 3 -13 5 -34 3 -21 -2
-47 1 -57 8 -16 10 -16 10 5 5 15 -5 22 -2 22 8 0 8 7 18 16 21 22 9 24 8 24
-9 0 -8 5 -15 10 -15 6 0 10 9 10 20 0 11 -7 20 -16 20 -11 0 -14 6 -9 20 4
14 2 20 -9 20 -8 0 -17 14 -21 33 -4 17 -11 37 -16 43 -12 15 5 22 47 20 21
-1 30 3 27 11 -3 7 -8 12 -11 11 -36 -4 -72 4 -72 17 0 21 70 17 87 -5 15 -18
17 -2 3 20 -7 11 -32 16 -93 18 -84 4 -85 4 -99 -25z m105 -171 c-6 -24 -18
-28 -29 -10 -4 6 1 17 11 24 23 17 26 14 18 -14z"/>
<path d="M5071 4644 c0 -11 3 -14 6 -6 3 7 2 16 -1 19 -3 4 -6 -2 -5 -13z"/>
<path d="M2575 4620 c3 -5 8 -10 11 -10 2 0 4 5 4 10 0 6 -5 10 -11 10 -5 0
-7 -4 -4 -10z"/>
<path d="M2561 4583 c-1 -17 4 -35 9 -38 11 -7 11 9 0 45 -8 24 -8 24 -9 -7z"/>
<path d="M1582 4528 c-23 -29 -72 -120 -72 -134 0 -9 18 -46 40 -82 l39 -67
88 3 88 3 35 62 c19 34 36 67 38 74 2 7 -15 44 -38 83 l-41 70 -83 0 c-55 0
-87 -4 -94 -12z"/>
<path d="M2413 4201 c-38 -63 -70 -120 -72 -126 -2 -5 -7 -12 -10 -15 -3 -3
-15 -21 -25 -40 -11 -19 -28 -51 -39 -70 l-20 -35 48 -80 c26 -44 58 -96 70
-115 13 -19 38 -62 55 -95 18 -33 49 -84 68 -114 l34 -55 14 33 c16 39 17 41
5 41 -5 0 -11 -10 -14 -21 -5 -20 -7 -20 -21 -6 -20 20 -20 31 -1 23 11 -4 15
2 15 24 0 27 -2 29 -24 20 -22 -8 -26 -5 -35 20 -9 28 1 51 14 30 11 -18 35
-11 35 10 0 11 6 20 14 20 9 0 13 10 12 25 0 14 -4 25 -8 25 -13 0 -9 45 4 58
9 9 9 12 0 12 -15 0 -16 76 -2 85 6 3 10 19 10 35 0 16 -4 32 -10 35 -17 10
-12 85 5 85 11 0 15 11 15 40 0 22 -4 40 -8 40 -4 0 -14 15 -22 33 -7 17 -15
35 -17 39 -2 3 4 8 14 11 17 4 17 5 1 6 -22 1 -24 31 -3 31 23 0 18 27 -6 33
-13 4 -18 10 -14 18 5 7 3 10 -6 7 -8 -3 -13 -11 -11 -17 1 -6 -4 -11 -12 -11
-11 0 -12 5 -3 24 7 13 16 22 21 19 5 -4 6 -1 2 5 -5 9 11 12 56 13 71 1 68 5
-9 12 l-53 4 -67 -116z m67 17 c0 6 5 12 10 12 6 0 5 -8 -2 -20 -11 -17 -10
-22 2 -30 10 -6 11 -10 3 -10 -8 0 -13 -15 -13 -42 0 -32 -3 -39 -10 -28 -5 8
-10 27 -10 42 0 14 -3 28 -7 31 -5 2 -2 2 5 0 10 -2 12 5 7 30 -5 24 -4 28 4
17 7 -10 11 -11 11 -2z m-30 -18 c0 -5 -4 -10 -10 -10 -5 0 -10 5 -10 10 0 6
5 10 10 10 6 0 10 -4 10 -10z m70 -310 c0 -44 -9 -50 -28 -20 -10 16 -10 24 0
40 19 30 28 24 28 -20z m-33 -102 c-2 -13 -4 -3 -4 22 0 25 2 35 4 23 2 -13 2
-33 0 -45z m-123 6 c3 -8 2 -12 -4 -9 -6 3 -10 10 -10 16 0 14 7 11 14 -7z
m113 -96 c0 -38 -2 -46 -7 -28 l-7 25 -8 -27 c-4 -16 -11 -28 -17 -28 -5 0 -6
10 -2 23 4 12 8 33 9 47 3 38 4 40 19 40 10 0 14 -14 13 -52z"/>
<path d="M2553 4263 c9 -2 23 -2 30 0 6 3 -1 5 -18 5 -16 0 -22 -2 -12 -5z"/>
<path d="M2557 4230 c3 -11 7 -20 9 -20 2 0 4 9 4 20 0 11 -4 20 -9 20 -5 0
-7 -9 -4 -20z"/>
<path d="M6308 4108 c-41 -73 -110 -194 -153 -268 -43 -74 -199 -346 -347
-605 -147 -258 -272 -477 -278 -485 -5 -8 -23 -41 -40 -72 -16 -31 -54 -98
-85 -148 -30 -50 -55 -93 -55 -96 0 -3 -16 -30 -35 -60 -19 -30 -35 -57 -35
-61 0 -3 -14 -28 -31 -56 -18 -29 -28 -58 -26 -69 4 -14 1 -18 -9 -14 -14 5
-18 -3 -15 -39 2 -16 0 -17 -8 -5 -8 12 -12 10 -19 -10 -11 -29 -5 -41 9 -20
8 13 10 13 18 1 7 -11 10 -9 16 8 7 23 25 29 25 8 0 -7 -9 -37 -20 -67 -17
-47 -18 -56 -5 -70 11 -12 13 -30 8 -71 -3 -29 -9 -56 -13 -59 -4 -3 -9 -33
-12 -68 -2 -34 -1 -57 4 -50 4 8 8 -7 8 -34 0 -47 19 -69 21 -25 1 15 3 17 6
5 2 -9 -3 -30 -11 -47 -24 -45 -19 -50 9 -9 14 20 25 40 25 44 0 4 11 22 25
40 14 18 25 35 25 38 0 3 24 45 53 93 30 49 56 93 58 98 2 6 31 55 63 110 81
138 156 264 176 300 50 88 263 451 270 460 4 6 21 35 37 65 17 30 79 138 138
240 59 102 125 214 145 250 20 36 101 175 179 310 128 220 141 247 131 269
-13 28 -170 301 -174 301 -1 0 -36 -60 -78 -132z m-1061 -1910 c-3 -8 -6 -5
-6 6 -1 11 2 17 5 13 3 -3 4 -12 1 -19z m0 -374 c-3 -3 -12 -4 -19 -1 -8 3 -5
6 6 6 11 1 17 -2 13 -5z m1 -85 c4 -40 -5 -35 -18 10 -7 24 -6 31 3 28 7 -2
13 -19 15 -38z"/>
<path d="M5158 4193 c7 -3 16 -2 19 1 4 3 -2 6 -13 5 -11 0 -14 -3 -6 -6z"/>
<path d="M5155 3885 c-11 -22 -23 -43 -28 -46 -5 -4 -5 -9 0 -12 12 -7 56 69
50 86 -2 6 -12 -6 -22 -28z"/>
<path d="M2570 3869 c0 -5 5 -7 10 -4 6 3 10 8 10 11 0 2 -4 4 -10 4 -5 0 -10
-5 -10 -11z"/>
<path d="M2547 3636 c-4 -10 -5 -21 -2 -24 9 -9 17 6 13 25 -3 17 -4 17 -11
-1z"/>
<path d="M2571 3564 c0 -11 3 -14 6 -6 3 7 2 16 -1 19 -3 4 -6 -2 -5 -13z"/>
<path d="M2550 3484 c0 -8 5 -12 10 -9 6 3 10 10 10 16 0 5 -4 9 -10 9 -5 0
-10 -7 -10 -16z"/>
<path d="M2537 3430 c3 -11 9 -22 13 -25 5 -3 6 4 3 15 -3 11 -9 22 -13 25 -5
3 -6 -4 -3 -15z"/>
<path d="M2581 3354 c0 -11 3 -14 6 -6 3 7 2 16 -1 19 -3 4 -6 -2 -5 -13z"/>
<path d="M5165 3267 c-4 -10 -5 -21 -1 -24 10 -10 18 4 13 24 -4 17 -4 17 -12
0z"/>
<path d="M5178 3163 c-10 -2 -15 -10 -11 -19 8 -21 33 -17 33 6 0 11 -1 19 -2
19 -2 -1 -11 -3 -20 -6z"/>
<path d="M5160 2960 c0 -5 5 -10 10 -10 6 0 10 5 10 10 0 6 -4 10 -10 10 -5 0
-10 -4 -10 -10z"/>
<path d="M2538 2813 c7 -3 16 -2 19 1 4 3 -2 6 -13 5 -11 0 -14 -3 -6 -6z"/>
<path d="M5160 2800 c0 -5 5 -10 10 -10 6 0 10 5 10 10 0 6 -4 10 -10 10 -5 0
-10 -4 -10 -10z"/>
<path d="M2560 2797 c0 -5 9 -20 20 -34 11 -14 20 -22 20 -17 -1 12 -39 61
-40 51z"/>
<path d="M5187 2773 c-11 -10 -8 -43 3 -43 6 0 10 11 10 25 0 26 -2 29 -13 18z"/>
<path d="M2600 2719 c0 -5 5 -7 10 -4 6 3 10 8 10 11 0 2 -4 4 -10 4 -5 0 -10
-5 -10 -11z"/>
<path d="M5157 2691 c-22 -45 -21 -49 4 -17 11 14 19 32 17 38 -3 7 -12 -3
-21 -21z"/>
<path d="M2561 2664 c0 -11 3 -14 6 -6 3 7 2 16 -1 19 -3 4 -6 -2 -5 -13z"/>
<path d="M2538 2403 c7 -3 16 -2 19 1 4 3 -2 6 -13 5 -11 0 -14 -3 -6 -6z"/>
<path d="M2530 2326 c0 -14 5 -26 10 -26 6 0 10 7 10 15 0 8 0 18 1 22 0 4 -4
9 -10 11 -6 2 -11 -8 -11 -22z"/>
<path d="M2530 2275 c14 -17 30 -20 30 -4 0 5 -4 7 -10 4 -5 -3 -10 -1 -10 4
0 6 -5 11 -11 11 -8 0 -8 -5 1 -15z"/>
<path d="M2550 2245 c0 -5 5 -17 10 -25 5 -8 10 -10 10 -5 0 6 -5 17 -10 25
-5 8 -10 11 -10 5z"/>
<path d="M2580 2190 c0 -5 5 -10 10 -10 6 0 10 5 10 10 0 6 -4 10 -10 10 -5 0
-10 -4 -10 -10z"/>
<path d="M2615 2120 c3 -5 8 -10 11 -10 2 0 4 5 4 10 0 6 -5 10 -11 10 -5 0
-7 -4 -4 -10z"/>
<path d="M5143 2062 c-3 -12 -9 -22 -14 -22 -5 0 -9 -4 -9 -10 0 -5 5 -10 10
-10 12 0 33 50 25 58 -3 4 -8 -4 -12 -16z"/>
<path d="M5167 2018 c-4 -13 2 -31 15 -47 l21 -26 -8 30 c-4 17 -7 38 -7 48 1
24 -15 21 -21 -5z"/>
<path d="M5085 1969 c-4 -6 -5 -12 -2 -15 2 -3 7 2 10 11 7 17 1 20 -8 4z"/>
<path d="M2512 1680 c27 -56 28 -58 28 -34 0 10 -11 33 -25 49 l-25 30 22 -45z"/>
<path d="M5170 1660 c0 -5 5 -10 11 -10 5 0 7 5 4 10 -3 6 -8 10 -11 10 -2 0
-4 -4 -4 -10z"/>
<path d="M5175 1570 c13 -15 22 -17 29 -10 12 12 -8 30 -33 30 -11 0 -10 -5 4
-20z"/>
<path d="M2594 1548 c3 -10 -1 -18 -12 -21 -12 -3 -11 -5 6 -6 24 -1 27 6 11
29 -9 13 -10 13 -5 -2z"/>
<path d="M5156 1541 c-4 -6 -2 -11 5 -11 8 0 8 -4 -1 -15 -7 -9 -10 -18 -7
-21 3 -3 11 4 17 16 13 23 -1 52 -14 31z"/>
<path d="M2571 1484 c0 -11 3 -14 6 -6 3 7 2 16 -1 19 -3 4 -6 -2 -5 -13z"/>
<path d="M5130 1469 c0 -5 5 -7 10 -4 6 3 10 8 10 11 0 2 -4 4 -10 4 -5 0 -10
-5 -10 -11z"/>
<path d="M3782 1221 l-64 -6 -34 -104 c-19 -58 -34 -112 -34 -120 0 -17 110
-202 177 -298 24 -34 43 -70 43 -80 0 -18 31 42 54 107 7 19 36 96 63 170 118
313 122 324 104 332 -19 8 -218 7 -309 -1z"/>
</g>
</svg>
