<svg width="28" height="28" viewBox="0 0 24 24" fill="none"
    xmlns="http://www.w3.org/2000/svg">
    <path d="M16.2328 12.3118C16.6486 11.5937 17.3195 11.5937 17.7352 12.3118L20.3242 16.8567C20.7399 17.5748 20.3998 18.1606 19.5683 18.1606H14.3525C13.5305 18.1606 13.1903 17.5748 13.5966 16.8567L16.2328 12.3118ZM11.225 3.5622C11.6407 2.84409 12.3021 2.84409 12.7179 3.5622L13.2943 4.60157L14.6549 6.99212C14.9856 7.67244 14.9856 8.47559 14.6549 9.1559L10.0911 17.0646C9.67536 17.7071 8.9856 18.1134 8.22024 18.1606H4.43127C3.59977 18.1606 3.25962 17.5842 3.67536 16.8567L11.225 3.5622Z" fill="white"></path>
</svg>