<svg viewBox="0 0 56 56" fill="none"
    xmlns="http://www.w3.org/2000/svg" height="100%">
    <path d="M45.6596 42.4127H35.8825L35.9385 42.3656L36.1497 42.1792L36.2813 42.0593L36.4901 41.8728L36.6217 41.7513C36.6951 41.6802 36.7673 41.6074 36.8401 41.5335L36.9521 41.4215C37.0339 41.3263 37.133 41.2272 37.2209 41.1286L37.273 41.0726C37.3776 40.9475 37.4804 40.8228 37.5816 40.6985L37.6639 40.5927C37.735 40.5003 37.8056 40.4096 37.875 40.3127C37.9097 40.2645 37.9405 40.2136 37.9792 40.1648C38.0352 40.0814 38.0968 39.9968 38.1528 39.9112C38.1881 39.8552 38.2233 39.7992 38.2592 39.7432C38.3118 39.6597 38.3801 39.555 38.4137 39.4878C38.4473 39.4206 38.4798 39.3601 38.5145 39.3008C38.5638 39.2151 38.6103 39.1272 38.6551 39.0376C38.687 38.9715 38.7212 38.9121 38.7481 38.8511C38.7934 38.7553 38.8365 38.6635 38.8797 38.5711C38.906 38.505 38.9357 38.4456 38.9581 38.3846C39.0012 38.2776 39.0409 38.1696 39.0796 38.0609C39.0997 38.0049 39.121 37.9551 39.1395 37.9008C39.1955 37.7361 39.2465 37.5715 39.2913 37.4001C39.6089 35.9707 39.6324 34.4915 39.3604 33.0527C39.0885 31.6138 38.5267 30.2453 37.7093 29.0304L37.8773 28.7442C38.0381 28.4604 38.2417 28.2032 38.4809 27.9815C38.6337 27.8398 38.8075 27.7227 38.9961 27.6343C39.109 27.5824 39.2273 27.5435 39.3489 27.5184C39.4669 27.4955 39.5874 27.4876 39.7073 27.4949C39.7873 27.4993 39.8667 27.5105 39.9448 27.5285C40.1345 27.5709 40.3152 27.6468 40.4785 27.7525C40.5238 27.7792 40.5678 27.8084 40.6101 27.8398C40.6832 27.8938 40.7533 27.9518 40.8201 28.0134C40.9658 28.1511 41.0971 28.3033 41.2121 28.4676C41.2806 28.5565 41.3429 28.6501 41.3985 28.7476L47.4381 39.3545C47.5349 39.5208 47.618 39.6946 47.6868 39.8742C47.7081 39.9302 47.7277 39.9862 47.7428 40.0422C47.7759 40.1481 47.8021 40.256 47.8212 40.3653C47.8363 40.4744 47.8419 40.5846 47.838 40.6946C47.839 40.8209 47.8258 40.947 47.7988 41.0704C47.7678 41.2279 47.711 41.3793 47.6308 41.5184C47.5492 41.6584 47.4458 41.7844 47.3245 41.8919C47.2276 41.9767 47.1216 42.0507 47.0086 42.1125L46.8871 42.1741C46.4999 42.3411 46.0812 42.4225 45.6596 42.4127V42.4127ZM34.3078 38.528C34.2989 38.4242 34.2877 38.3189 34.2742 38.2121C34.2758 38.1818 34.272 38.1515 34.263 38.1225C34.2479 38.0049 34.2306 37.8851 34.2104 37.7641L34.1992 37.6986C34.1807 37.5916 34.1594 37.4836 34.1376 37.3732C34.1343 37.3441 34.1285 37.3152 34.1202 37.287C34.0978 37.1621 34.0642 37.0356 34.0323 36.914C34.029 36.8851 34.022 36.8567 34.0116 36.8295C33.9836 36.7149 33.9524 36.5991 33.9181 36.4823L33.8979 36.41C33.8587 36.2751 33.8161 36.1401 33.7708 36.0024L33.7389 35.9072L31.7229 39.3792C31.6534 39.5045 31.5912 39.6337 31.5364 39.7661C31.4367 39.9983 31.3701 40.2434 31.3387 40.4941C31.3259 40.6056 31.3227 40.7181 31.3292 40.8301C31.3344 40.9143 31.3458 40.998 31.3633 41.0804C31.4278 41.3996 31.595 41.6889 31.8393 41.9042C31.9694 42.0179 32.1152 42.1122 32.2722 42.1842C32.656 42.3517 33.0717 42.4333 33.4902 42.4233H33.7142L33.7333 42.3785C33.7618 42.2912 33.7893 42.2195 33.8218 42.145L33.8329 42.117C33.8593 42.0498 33.8833 41.977 33.908 41.9115L33.9298 41.8499C33.9561 41.7737 33.9802 41.6953 34.0065 41.6169L34.0217 41.5682C34.0424 41.4988 34.0626 41.4282 34.081 41.3571C34.0843 41.3345 34.0901 41.3123 34.0984 41.291C34.1197 41.2081 34.1393 41.123 34.1577 41.0373L34.1706 40.9712C34.1857 40.8962 34.2009 40.8217 34.2143 40.7472L34.2255 40.6812C34.2406 40.5916 34.2541 40.4997 34.2664 40.4073C34.2649 40.3818 34.2679 40.3562 34.2753 40.3317C34.286 40.2488 34.2955 40.1637 34.3033 40.078V40.022C34.3033 39.9212 34.3218 39.8244 34.3218 39.7236V38.9894V38.9082C34.3218 38.7962 34.3106 38.6842 34.3017 38.5722L34.3078 38.528ZM26.7008 26.2769C23.9008 21.6804 25.5114 15.4795 30.8958 14.2509C30.8958 14.2509 27.6158 19.5401 32.4078 23.2305C32.5758 23.3604 32.7404 23.4909 32.905 23.6225L34.2126 21.3825C34.2328 21.3377 34.2535 21.2929 34.2737 21.2469C34.3375 21.1081 34.3952 20.9669 34.4478 20.8241C34.551 20.5404 34.6314 20.2488 34.6881 19.9522C34.7144 19.8049 34.7379 19.6549 34.7541 19.5042V19.5009C34.804 19.0704 34.804 18.6355 34.7541 18.205C34.7385 18.0561 34.7161 17.906 34.6881 17.757C34.6679 17.645 34.6433 17.533 34.6136 17.4272C34.5716 17.2625 34.5223 17.1001 34.4663 16.9377C34.4103 16.7753 34.3476 16.6174 34.2787 16.4617C34.2585 16.4164 34.2395 16.3705 34.2177 16.3257L31.0425 10.7447L29.6985 8.32271C29.5865 8.1274 29.4566 7.94293 29.3104 7.77168C29.1836 7.62375 29.04 7.49107 28.8826 7.37632C28.8101 7.32522 28.7343 7.27901 28.6558 7.238C28.4407 7.12179 28.2002 7.06094 27.9558 7.06094C27.7113 7.06094 27.4708 7.12179 27.2558 7.238C27.0946 7.32253 26.9453 7.42798 26.8117 7.5516C26.6586 7.6936 26.5208 7.85126 26.4006 8.022C26.3364 8.11421 26.2741 8.21277 26.2136 8.31767L8.596 39.3472C8.40171 39.6717 8.26882 40.0291 8.204 40.4017C8.19001 40.4926 8.18215 40.5842 8.18048 40.6761V40.8083C8.18447 40.8924 8.19496 40.9761 8.21184 41.0586C8.22716 41.1382 8.24927 41.2163 8.27792 41.2921C8.29304 41.3296 8.3076 41.3672 8.32384 41.4041C8.38769 41.5413 8.47507 41.6662 8.582 41.7732C8.6175 41.8107 8.65488 41.8464 8.694 41.8801C8.74078 41.9199 8.78957 41.9573 8.84016 41.9921C9.0738 42.148 9.33521 42.2575 9.61016 42.3147C9.76948 42.3499 9.93121 42.3731 10.094 42.3841H19.1996C19.2991 42.3813 19.3982 42.3718 19.4964 42.3556L19.586 42.3444L19.8027 42.3108L19.8923 42.2956C19.9881 42.2772 20.0799 42.2587 20.1785 42.2363H20.211C20.295 42.2189 20.379 42.1954 20.4624 42.1708L20.5598 42.1411L20.7463 42.075L20.8421 42.0414C20.9322 42.0078 21.0202 41.9742 21.1058 41.935C20.5335 41.2729 20.0516 40.5377 19.6728 39.7488C17.2273 34.7244 20.832 28.63 20.832 28.63C20.832 28.63 20.2944 34.4064 24.0615 34.6701C24.5777 34.7335 25.1016 34.6829 25.5962 34.522C26.0908 34.3611 26.5441 34.0938 26.9242 33.7388C27.1303 33.5448 27.3064 33.3211 27.4467 33.0753L27.5492 32.8994C27.6909 32.6544 27.7969 32.3904 27.8639 32.1154C28.1064 31.1162 28.128 30.0761 27.9271 29.0677C27.7262 28.0593 27.3077 27.1068 26.7008 26.2769V26.2769Z" fill="#11BAF0"></path>
</svg>