<svg width="28" height="28" viewBox="0 0 28 28" fill="none"
    xmlns="http://www.w3.org/2000/svg">
    <g clip-path="url(#clip0_747_1479)">
        <path d="M8.15144 17.6853C8.25924 17.5775 8.40746 17.5146 8.56466 17.5146H22.8207C23.0812 17.5146 23.2115 17.829 23.0273 18.0131L20.2112 20.8293C20.1034 20.9371 19.9551 21 19.7979 21H5.54188C5.28137 21 5.15112 20.6856 5.33527 20.5015L8.15144 17.6853Z" fill="white"></path>
        <path d="M8.15144 7.17068C8.26373 7.06288 8.41195 7 8.56466 7H22.8207C23.0812 7 23.2115 7.3144 23.0273 7.49856L20.2112 10.3147C20.1034 10.4225 19.9551 10.4854 19.7979 10.4854H5.54188C5.28137 10.4854 5.15112 10.171 5.33527 9.98685L8.15144 7.17068Z" fill="white"></path>
        <path d="M20.2112 12.3943C20.1034 12.2865 19.9551 12.2236 19.7979 12.2236H5.54188C5.28137 12.2236 5.15112 12.538 5.33527 12.7222L8.15144 15.5383C8.25924 15.6461 8.40746 15.709 8.56466 15.709H22.8207C23.0812 15.709 23.2115 15.3946 23.0273 15.2105L20.2112 12.3943Z" fill="white"></path>
    </g>
    <defs>
        <clipPath id="clip0_747_1479">
            <rect width="17.9375" height="14" fill="white" transform="translate(5.25 7)"></rect>
        </clipPath>
    </defs>
</svg>