<svg viewBox="0 0 56 56" fill="none"
    xmlns="http://www.w3.org/2000/svg" height="100%">
    <path d="M0 28C0 12.536 12.536 0 28 0C43.464 0 56 12.536 56 28C56 43.464 43.464 56 28 56C12.536 56 0 43.464 0 28Z" fill="#00A3FF" fill-opacity="0.12"></path>
    <path d="M16.5666 25.9769L16.2466 26.4679C12.6375 32.0043 13.4435 39.2549 18.1844 43.9002C20.9735 46.633 24.629 47.9996 28.2844 48C28.2844 48 28.2844 48 16.5666 25.9769Z" fill="#00A3FF"></path>
    <path opacity="0.6" d="M28.282 32.6703L16.5641 25.9769C28.282 48 28.282 48 28.282 48C28.282 43.2036 28.282 37.7074 28.282 32.6703Z" fill="#00A3FF"></path>
    <path opacity="0.6" d="M40.0148 25.9769L40.3348 26.4679C43.9439 32.0043 43.1379 39.2549 38.397 43.9002C35.6079 46.633 31.9525 47.9996 28.297 48C28.297 48 28.297 48 40.0148 25.9769Z" fill="#00A3FF"></path>
    <path opacity="0.2" d="M28.2958 32.6703L40.0137 25.9769C28.2959 48 28.2958 48 28.2958 48C28.2958 43.2036 28.2958 37.7074 28.2958 32.6703Z" fill="#00A3FF"></path>
    <path opacity="0.2" d="M28.3 17.7188V29.263L38.3937 23.4947L28.3 17.7188Z" fill="#00A3FF"></path>
    <path opacity="0.6" d="M28.297 17.7188L18.196 23.4945L28.297 29.263V17.7188Z" fill="#00A3FF"></path>
    <path d="M28.297 8.00839L18.196 23.4964L28.297 17.7045V8.00839Z" fill="#00A3FF"></path>
    <path opacity="0.6" d="M28.3 17.7036L38.4014 23.4957L28.3 8V17.7036Z" fill="#00A3FF"></path>
</svg>