<svg viewBox="0 0 56 56" fill="none"
    xmlns="http://www.w3.org/2000/svg" height="100%">
    <path d="M0 28C0 12.536 12.536 0 28 0C43.464 0 56 12.536 56 28C56 43.464 43.464 56 28 56C12.536 56 0 43.464 0 28Z" fill="#EF4444" fill-opacity="0.16"></path>
    <g clip-path="url(#clip0_904_112)">
        <path d="M28 56C43.464 56 56 43.464 56 28C56 12.536 43.464 0 28 0C12.536 0 0 12.536 0 28C0 43.464 12.536 56 28 56Z" fill="#FF007A" fill-opacity="0.12"></path>
        <path d="M25.1814 25.4557C25.8638 26.6625 24.3377 27.0365 23.6216 27.1053C22.5363 27.2113 22.3117 26.583 22.5236 25.7937C22.5932 25.5111 22.7476 25.2569 22.9659 25.0655C23.1842 24.874 23.4558 24.7547 23.7439 24.7236C24.0278 24.6975 24.3133 24.7523 24.5675 24.8818C24.8218 25.0113 25.0346 25.2103 25.1814 25.4557Z" fill="#FF007A"></path>
        <path d="M29.4415 23.2231C28.6483 29.3172 39.3406 28.049 39.137 32.8992C40.1915 31.5219 40.6451 27.7799 37.5401 25.8538C34.7737 24.1364 31.169 25.0762 29.4415 23.2231Z" fill="#FF007A"></path>
        <path d="M35.6002 20.9232C35.5304 20.8586 35.4589 20.795 35.3891 20.7314C35.4598 20.7961 35.5304 20.8639 35.6002 20.9232Z" fill="#FF007A"></path>
        <path d="M38.0855 25.3672L38.0792 25.3576C37.9827 25.1775 37.8727 25.0051 37.75 24.8417C37.3896 24.3511 36.8725 23.9996 36.2853 23.8458C35.8942 23.7444 35.4944 23.6813 35.0914 23.6572C34.6831 23.6275 34.2666 23.6106 33.8458 23.5883C33.0021 23.5417 32.1383 23.4548 31.2946 23.2133C31.0836 23.1529 30.8727 23.0872 30.6692 23.0077C30.5637 22.9696 30.4656 22.9283 30.3612 22.8838C30.2568 22.8393 30.1503 22.7884 30.0448 22.7344C29.6481 22.5161 29.2806 22.248 28.9511 21.9366C28.3015 21.3296 27.791 20.6409 27.2795 19.9734C26.7973 19.3034 26.2798 18.6597 25.7292 18.0452C25.1859 17.4432 24.5438 16.9393 23.8308 16.5556C23.0925 16.1821 22.2906 15.952 21.4673 15.8775C22.3214 15.7844 23.1854 15.8902 23.9921 16.1869C24.8062 16.5044 25.5504 16.9791 26.1827 17.5843C26.5955 17.9732 26.983 18.3883 27.3428 18.8271C30.0216 18.2974 32.1941 18.7678 33.8636 19.681L33.9016 19.7001C34.4331 19.9896 34.931 20.3371 35.3866 20.7363C35.4593 20.7998 35.5311 20.8634 35.5975 20.928C35.9532 21.2562 36.2842 21.6103 36.5879 21.9875L36.6111 22.0182C37.5973 23.2726 38.0844 24.5768 38.0855 25.3672Z" fill="#FF007A"></path>
        <path d="M38.0849 25.3627L38.0786 25.3501L38.0849 25.3627Z" fill="#FF007A"></path>
        <path d="M21.605 16.6621C22.2884 16.7617 22.9855 17.035 23.4348 17.5563C23.8841 18.0776 24.0497 18.7556 24.1794 19.4008C24.2849 19.9009 24.3682 20.4105 24.5644 20.8841C24.6593 21.115 24.7985 21.3174 24.9145 21.5357C25.0105 21.7168 25.1856 21.88 25.2531 22.0739C25.2651 22.1017 25.2696 22.1322 25.2661 22.1624C25.2626 22.1925 25.2512 22.2212 25.233 22.2455C24.9947 22.5104 24.3513 22.2158 24.1087 22.0972C23.6894 21.8884 23.3138 21.6007 23.0024 21.2496C22.029 20.1637 21.5259 18.6009 21.5565 17.1781C21.5632 17.0053 21.5794 16.8331 21.605 16.6621Z" fill="#FF007A"></path>
        <path d="M33.0336 28.9053C31.5569 33.0445 38.254 35.8215 35.7451 40.0296C38.3195 38.9618 39.5417 35.7357 38.4734 33.1759C37.539 30.9289 34.7758 30.1099 33.0336 28.9053Z" fill="#FF007A"></path>
        <path d="M24.1743 34.3187C24.5767 34.014 25.0166 33.7629 25.4831 33.5717C25.9551 33.382 26.4448 33.24 26.9449 33.148C27.9373 32.9583 28.9192 32.9118 29.744 32.5779C30.1515 32.4181 30.5264 32.1847 30.8503 31.8893C31.1638 31.5967 31.4038 31.2336 31.5506 30.8298C31.7009 30.4037 31.7621 29.951 31.7299 29.5002C31.6926 29.0158 31.5835 28.5398 31.4061 28.0879C31.7738 28.472 32.0413 28.9412 32.1853 29.454C32.3296 29.9668 32.3455 30.5074 32.2319 31.0279C32.1028 31.5789 31.8242 32.0831 31.4272 32.4847C31.0341 32.8737 30.5601 33.1703 30.0393 33.3534C29.5422 33.5285 29.0239 33.6356 28.4984 33.6714C27.9922 33.7137 27.5028 33.7254 27.0219 33.7539C26.0496 33.7949 25.0892 33.9852 24.1743 34.3187Z" fill="#FF007A"></path>
        <path d="M33.6222 41.5956C33.4735 41.7142 33.3248 41.8402 33.1612 41.9505C32.9967 42.0594 32.8243 42.1557 32.6455 42.2387C32.2731 42.4212 31.8638 42.5143 31.4496 42.5109C30.3274 42.4898 29.5343 41.6505 29.0702 40.7024C28.7539 40.0562 28.5355 39.358 28.1601 38.7424C27.6233 37.862 26.7047 37.1532 25.6289 37.2846C25.1902 37.3398 24.7789 37.5378 24.5352 37.9203C23.894 38.9193 24.8147 40.319 25.9885 40.1208C26.0884 40.1055 26.1861 40.0785 26.2796 40.0402C26.3729 40.0004 26.4599 39.9473 26.538 39.8825C26.702 39.7452 26.8256 39.5657 26.8956 39.3632C26.9727 39.1521 26.9898 38.9235 26.9451 38.7033C26.897 38.4729 26.7616 38.2704 26.5675 38.1385C26.7931 38.2447 26.9689 38.4346 27.058 38.6682C27.1503 38.9087 27.174 39.1704 27.1265 39.4237C27.0805 39.6876 26.9646 39.9342 26.7911 40.1376C26.699 40.2425 26.5924 40.3334 26.4747 40.4079C26.3581 40.4814 26.2331 40.5408 26.1025 40.5847C25.8376 40.6758 25.5555 40.7051 25.2777 40.6707C24.8876 40.6149 24.5197 40.4544 24.2125 40.2065C23.8497 39.9185 23.5797 39.5412 23.2517 39.2169C22.8757 38.8207 22.4321 38.4954 21.9418 38.2562C21.6038 38.107 21.2499 37.9968 20.8872 37.9277C20.7047 37.8894 20.5202 37.862 20.3356 37.8386C20.2512 37.8303 19.8378 37.738 19.7798 37.792C20.3503 37.2646 20.9721 36.7959 21.636 36.3936C22.3176 35.9873 23.0495 35.6727 23.8128 35.4581C24.6042 35.2342 25.4319 35.1705 26.248 35.2704C26.6681 35.3213 27.0795 35.4282 27.4714 35.5884C27.882 35.7531 28.261 35.9882 28.5914 36.2834C28.9185 36.593 29.1828 36.9631 29.3698 37.3735C29.5386 37.7578 29.6645 38.1597 29.7452 38.5719C29.9857 39.804 29.8971 41.7142 31.5034 41.9959C31.5871 42.0123 31.6715 42.0243 31.7565 42.0321L32.0191 42.0384C32.1995 42.0254 32.3791 41.9997 32.5559 41.961C32.9222 41.8744 33.2795 41.752 33.6222 41.5956Z" fill="#FF007A"></path>
        <path d="M24.2911 40.2542L24.249 40.2211L24.2911 40.2542Z" fill="#FF007A"></path>
        <path d="M22.8478 22.8628C22.7894 23.0886 22.6872 23.3006 22.5472 23.4868C22.2867 23.8265 21.942 24.0913 21.5474 24.2549C21.1926 24.4085 20.8168 24.5078 20.4327 24.5495C20.3493 24.5601 20.2629 24.5664 20.1796 24.5728C19.9362 24.5821 19.7023 24.6694 19.5119 24.8219C19.3216 24.9744 19.1849 25.1841 19.1217 25.4204C19.0928 25.5379 19.0713 25.6571 19.0574 25.7774C19.0194 26.0889 19.0131 26.4131 18.9794 26.8051C18.8967 27.4722 18.7046 28.1208 18.4109 28.7248C18.0291 29.5321 17.6009 30.1827 17.7001 31.1129C17.7654 31.7168 18.0734 32.1215 18.4826 32.5389C19.2209 33.2974 20.8735 33.6365 20.5044 35.5053C20.2818 36.6211 18.4404 37.7918 15.8523 38.2006C16.1096 38.1614 15.5222 37.1667 15.4853 37.1031C15.2079 36.6665 14.9042 36.2555 14.6837 35.7819C14.2513 34.8634 14.0509 33.8007 14.2281 32.7943C14.4148 31.7348 15.1952 30.9232 15.8438 30.1138C16.6159 29.1507 17.4258 27.8889 17.6051 26.6388C17.6473 26.3357 17.6769 25.9564 17.7443 25.5793C17.8087 25.1614 17.939 24.7566 18.1303 24.38C18.261 24.133 18.4329 23.9104 18.6387 23.722C18.746 23.622 18.8168 23.4887 18.8397 23.3435C18.8627 23.1983 18.8364 23.0496 18.7652 22.9211L14.6394 15.4667L20.5655 22.813C20.633 22.8981 20.7183 22.9673 20.8154 23.0156C20.9125 23.0639 21.019 23.0901 21.1273 23.0925C21.2356 23.0948 21.3431 23.0731 21.4421 23.0291C21.5411 22.985 21.6293 22.9195 21.7004 22.8374C21.7754 22.7494 21.818 22.6382 21.8209 22.5224C21.8238 22.4066 21.7868 22.2933 21.7162 22.2017C21.3291 21.7048 20.9199 21.1984 20.5234 20.7004L19.0321 18.8464L16.039 15.1446L11.9575 10L16.4229 14.813L19.609 18.3516L21.1984 20.1252C21.7257 20.7216 22.253 21.299 22.7803 21.9262L22.8668 22.0322L22.8858 22.1964C22.9115 22.4191 22.8987 22.6445 22.8478 22.8628Z" fill="#FF007A"></path>
        <path d="M24.2152 40.2002C23.9289 39.9781 23.6741 39.7173 23.458 39.4257C23.6898 39.7034 23.943 39.9623 24.2152 40.2002Z" fill="#FF007A"></path>
    </g>
    <defs>
        <clipPath id="clip0_904_112">
            <rect width="56" height="56" rx="24" fill="white"></rect>
        </clipPath>
    </defs>
</svg>