<svg viewBox="0 0 56 56" fill="none"
    xmlns="http://www.w3.org/2000/svg" height="100%" class="sc-dlnjwi dJXsSm">
    <path d="M0 28C0 12.536 12.536 0 28 0C43.464 0 56 12.536 56 28C56 43.464 43.464 56 28 56C12.536 56 0 43.464 0 28Z" fill="#E39652" fill-opacity="0.12"></path>
    <path d="M45.66 11.7524L44.1225 13.2889C51.7269 21.6053 51.7269 34.3522 44.1225 42.6675L45.66 44.2039C54.1235 35.028 54.1235 20.8904 45.66 11.715" fill="#E39652"></path>
    <path d="M13.3191 11.886C21.6351 4.28083 34.3812 4.28083 42.6978 11.886L44.2353 10.3481C35.0588 1.88368 20.9219 1.88368 11.7455 10.3481" fill="#E39652"></path>
    <path d="M11.885 42.6854C4.28969 34.371 4.28969 21.6363 11.885 13.3219L10.3472 11.7854C1.88365 20.962 1.88365 35.0987 10.3472 44.2744" fill="#E39652"></path>
    <path d="M42.6821 44.1039C34.3661 51.709 21.6197 51.709 13.3034 44.1039L11.7656 45.6404C20.9423 54.1048 35.079 54.1048 44.2557 45.6404" fill="#E39652"></path>
    <path d="M32.6579 24.0843C32.6579 27.1594 27.8504 26.7854 26.323 26.7854V21.3679C27.8504 21.3679 32.6579 20.886 32.6579 24.0843ZM33.9137 32.4948C33.9137 35.8571 28.1528 35.4727 26.3179 35.4727V29.5068C28.1528 29.5119 33.9137 28.9842 33.9137 32.4959V32.4948ZM37.7066 22.8694C37.3986 19.661 34.6314 18.5847 31.1308 18.2567V13.8334H28.4244V18.1695C27.7121 18.1695 26.9843 18.1695 26.2617 18.1952V13.8334H23.5709V18.2824H18.0871V21.1782C18.0871 21.1782 20.086 21.1421 20.0552 21.1782C20.8052 21.0964 21.4852 21.6222 21.593 22.3671V34.5503C21.5776 34.8037 21.4619 35.0406 21.2713 35.2088C21.0808 35.3771 20.8311 35.463 20.5771 35.4476C20.5741 35.4478 20.571 35.4478 20.5679 35.4476C20.6037 35.4783 18.5998 35.4476 18.5998 35.4476L18.0616 38.6819H23.5247V43.2024H26.2309V38.7478H28.3939V43.1812H31.1051V38.7115C35.6769 38.4347 38.8649 37.3069 39.2645 33.0275C39.5876 29.5836 37.967 28.0472 35.3795 27.4259C36.9531 26.6264 37.9424 25.2168 37.7066 22.8694Z" fill="#E39652"></path>
    <g mask="url(#mask0_3_60)">
        <path d="M27.9949 2.1834C13.7452 2.19206 2.2002 13.7503 2.20888 27.9999C2.21756 42.2495 13.776 53.7944 28.0249 53.7857C42.2646 53.7774 53.805 42.2342 53.8106 27.9949C53.7936 13.7478 42.2416 2.20435 27.9946 2.19876L27.9949 2.1834ZM27.9949 55.9999C12.5311 55.9974 -0.00311701 43.4591 -3.75797e-05 27.9949C0.00304299 12.5307 12.5412 -0.00310992 28.005 -3.75823e-05C43.4688 0.00303588 55.9974 12.5346 56 27.9949C55.9832 43.4544 43.456 55.9826 27.9949 55.9999Z" fill="#E39652"></path>
    </g>
</svg>